<?xml version="1.0" encoding="utf-8"?>
<!-- Generator: Adobe Illustrator 16.0.0, SVG Export Plug-In . SVG Version: 6.00 Build 0)  -->
<!DOCTYPE svg PUBLIC "-//W3C//DTD SVG 1.1//EN" "http://www.w3.org/Graphics/SVG/1.1/DTD/svg11.dtd">
<svg version="1.1" id="Layer_1" xmlns="http://www.w3.org/2000/svg" xmlns:xlink="http://www.w3.org/1999/xlink" x="0px" y="0px"
	 width="213px" height="192.893px" viewBox="0 0 213 192.893" enable-background="new 0 0 213 192.893" xml:space="preserve">
<g id="Layer">
	<g>
		<g>
			<g>
				<g>
					<g>
						<defs>
							<rect id="SVGID_1_" x="6" y="6.667" width="190" height="186.226"/>
						</defs>
						<clipPath id="SVGID_2_">
							<use xlink:href="#SVGID_1_"  overflow="visible"/>
						</clipPath>
						<g clip-path="url(#SVGID_2_)">
							<g>
								<g>
									<path fill="#E0E0E0" d="M136.102,145.538c6.625-1.986,14.736,0.098,21.859,7.709c2.277,2.458,4.482,5.007,6.59,7.673
										c3.692,4.678,7.121,9.689,9.987,15.256c2.839,5.555,5.187,11.708,6.026,18.558c0.416,3.409,0.433,6.977-0.078,10.521
										c-0.506,3.542-1.547,7.045-3.047,10.269c-1.496,3.23-3.433,6.17-5.59,8.771c-2.164,2.604-4.553,4.889-7.025,6.938
										l-2.456,1.906l-9.968-13.303l1.765-1.425c3.474-2.997,6.243-6.352,7.787-9.928c1.562-3.566,1.998-7.39,1.411-11.499
										c-0.573-4.101-2.223-8.403-4.481-12.587c-2.267-4.188-5.146-8.267-8.356-12.163c-1.832-2.229-3.779-4.397-5.814-6.513
										C138.424,159.221,135.794,152.462,136.102,145.538z"/>
									<path fill="#E8E8E8" d="M157.4,152.651c0,0,0.356,0.603,1.347,1.997c0.995,1.399,2.579,3.629,4.946,6.963
										c1.596,2.373,3.746,5.516,6.248,9.768c1.242,2.133,2.57,4.546,3.888,7.334c1.304,2.793,2.631,5.941,3.677,9.629
										c1.805,6.229,2.186,12.41,1.364,17.763c-0.414,2.678-1.113,5.12-1.914,7.317c-0.433,1.083-0.838,2.135-1.325,3.087
										c-0.447,0.979-0.941,1.872-1.43,2.717c-1.955,3.387-3.957,5.816-5.59,7.713c-1.659,1.867-3.002,3.154-3.947,4.104
										c-1.607,1.47-2.296,2.099-2.296,2.099l2.456-1.906c2.477-2.049,4.861-4.331,7.023-6.938
										c2.158-2.604,4.094-5.541,5.59-8.771c1.5-3.224,2.543-6.728,3.047-10.269c0.511-3.545,0.494-7.107,0.076-10.521
										c-0.84-6.849-3.188-13.002-6.025-18.557c-2.867-5.562-6.297-10.576-9.988-15.253
										C162.27,158.039,159.872,155.301,157.4,152.651z"/>
									<path fill="#E8E8E8" d="M144.229,165.215c0,0,0.523,0.32,1.699,1.256c1.172,0.938,3.006,2.494,5.452,5.072
										c1.728,1.768,3.931,4.228,6.279,7.604c2.308,3.369,4.866,7.711,6.413,13.028c1.291,4.508,1.373,8.413,0.781,11.593
										c-0.627,3.187-1.875,5.696-3.248,7.701c-2.801,4.009-5.75,6.026-7.28,7.127c-1.345,0.882-1.925,1.232-1.925,1.232
										l1.765-1.428c3.476-2.994,6.244-6.349,7.788-9.925c1.563-3.566,2-7.389,1.413-11.499
										c-0.573-4.102-2.222-8.404-4.479-12.589c-2.268-4.188-5.146-8.268-8.357-12.165
										C148.555,169.823,146.432,167.49,144.229,165.215z"/>
								</g>
							</g>
						</g>
					</g>
				</g>
			</g>
		</g>
		<g>
			<g>
				<g>
					<g>
						<defs>
							<rect id="SVGID_3_" x="6" y="6.667" width="190" height="186.226"/>
						</defs>
						<clipPath id="SVGID_4_">
							<use xlink:href="#SVGID_3_"  overflow="visible"/>
						</clipPath>
						<g clip-path="url(#SVGID_4_)">
							<path fill="#FBB285" d="M32.371,99.868c0,0-0.142,0.899-0.284,1.806c-0.109,0.896-0.22,1.796-0.22,1.796
								c0.355-0.071,0.74-0.033,1.089,0.14l1.409,0.692c0.756,0.37,1.041,1.188,0.685,1.835c0,0-0.185,0.329-0.465,0.827
								c-0.276,0.498-0.669,1.175-0.997,1.842c-0.346,0.68-0.689,1.361-0.95,1.871c-0.238,0.513-0.396,0.855-0.396,0.855
								c-0.313,0.68-1.211,1.03-2.007,0.762c0,0-3.458-0.132-6.917-0.263c-3.456-0.165-6.914-0.328-6.914-0.328
								c-0.845,0.004-1.565-0.786-1.529-1.735c0,0,0.029-0.684,0.07-1.711c0.023-1.034,0.139-2.382,0.252-3.731
								c0.089-1.354,0.285-2.677,0.397-3.679c0.116-1.002,0.212-1.66,0.212-1.66c0.141-0.911,0.942-1.542,1.786-1.401l1.577,0.243
								c0.347,0.057,0.644,0.229,0.869,0.473c0.329-0.506,0.913-0.799,1.527-0.697l1.576,0.253c0.363,0.063,0.67,0.246,0.9,0.5
								c0.332-0.447,0.887-0.696,1.475-0.599l1.574,0.263c0.324,0.054,0.611,0.206,0.83,0.415
								c0.306-0.526,1.581-11.188,3.146-12.736l2.129,0.193C34.266,85.329,32.493,99.092,32.371,99.868z"/>
							<g>
								<g>
									<path fill="#FBB285" d="M32.248,107.553c0,0-0.154,0.547-0.385,1.367c-0.255,0.821-0.51,1.912-0.764,3.004
										c-0.277,1.095-0.426,2.174-0.602,2.995c-0.115,0.811-0.192,1.35-0.192,1.35l-15.246-1.149c0,0,0.027-0.729,0.068-1.817
										c0.099-1.066,0.164-2.527,0.355-3.932c0.171-1.414,0.354-2.829,0.55-3.86c0.179-1.044,0.297-1.737,0.297-1.737
										c0.51-2.008,1.875-3.2,3.626-3.666c1.75-0.472,3.831-0.266,5.777,0.372c1.948,0.642,3.766,1.694,4.989,2.937
										C31.957,104.653,32.639,106.069,32.248,107.553z"/>
									<path fill="#E0E0E0" d="M96.767,153.541c-3.036,6.215-10.069,10.762-20.493,10.83c-3.352,0.007-6.721-0.104-10.108-0.363
										c-5.942-0.459-11.952-1.344-17.982-3.012c-6.008-1.686-12.121-4.132-17.724-8.161c-2.787-2.007-5.416-4.413-7.674-7.192
										c-2.26-2.771-4.127-5.916-5.477-9.204c-1.359-3.291-2.208-6.705-2.652-10.057c-0.448-3.358-0.506-6.659-0.331-9.869
										l0.265-3.098l16.536,1.701l-0.149,2.264c-0.154,4.585,0.428,8.893,2.008,12.453c1.562,3.566,4.073,6.479,7.491,8.839
										c3.4,2.36,7.685,4.069,12.288,5.245c4.613,1.177,9.563,1.828,14.604,2.107c2.882,0.165,5.8,0.207,8.732,0.146
										C85.138,145.966,91.889,148.618,96.767,153.541z"/>
									<path fill="#E8E8E8" d="M77.091,164.365c0,0-0.684-0.146-2.38-0.367c-1.703-0.221-4.417-0.567-8.473-1.089
										c-2.826-0.438-6.59-0.986-11.412-2.033c-2.408-0.534-5.084-1.194-8.024-2.118c-2.937-0.938-6.153-2.101-9.569-3.831
										c-5.803-2.903-10.6-6.812-13.975-11.048c-1.687-2.12-3.007-4.292-4.078-6.37c-0.503-1.053-1-2.064-1.368-3.068
										c-0.418-0.989-0.738-1.962-1.027-2.894c-1.162-3.733-1.589-6.854-1.875-9.339c-0.246-2.486-0.282-4.348-0.334-5.686
										c0.011-2.18,0.015-3.107,0.015-3.107l-0.265,3.098c-0.175,3.21-0.116,6.51,0.333,9.868
										c0.444,3.353,1.294,6.767,2.652,10.056c1.35,3.289,3.217,6.437,5.478,9.205c2.257,2.78,4.885,5.188,7.673,7.191
										c5.602,4.025,11.717,6.478,17.722,8.16c6.03,1.667,12.042,2.55,17.982,3.01C69.83,164.287,73.467,164.383,77.091,164.365z"
										/>
									<path fill="#E8E8E8" d="M76.797,146.163c0,0-0.591,0.168-2.076,0.396c-1.484,0.228-3.871,0.52-7.425,0.563
										c-2.469,0.066-5.772,0.02-9.849-0.547c-4.041-0.594-8.966-1.654-13.923-4.125c-4.188-2.109-7.111-4.698-9.046-7.291
										c-1.914-2.619-2.914-5.241-3.455-7.61c-1.046-4.776-0.527-8.313-0.298-10.185c0.265-1.588,0.4-2.25,0.4-2.25l-0.149,2.264
										c-0.155,4.586,0.428,8.893,2.008,12.454c1.562,3.566,4.071,6.479,7.489,8.839c3.402,2.361,7.685,4.072,12.289,5.248
										c4.615,1.177,9.563,1.828,14.606,2.112C70.478,146.216,73.633,146.24,76.797,146.163z"/>
								</g>
								<path fill="#E8E8E8" d="M14.499,108.469c0,0-0.09,0.511-0.223,1.276c-0.128,0.768-0.245,1.818-0.381,2.859
									c-0.15,1.034-0.189,2.121-0.263,2.914c-0.031,0.398-0.055,0.732-0.072,0.965c-0.008,0.227-0.012,0.354-0.012,0.354
									l18.185,0.832c0,0,0.002-0.088,0.005-0.24c0.014-0.164,0.033-0.396,0.057-0.682c0.06-0.569,0.067-1.313,0.186-2.082
									c0.107-0.771,0.182-1.53,0.281-2.111c0.104-0.581,0.172-0.97,0.172-0.97L14.499,108.469z"/>
							</g>
							<g>
								<path fill="#E0E0E0" d="M115.135,140.398c8.252-0.433,14.826,0.811,19.053,2.004l11.543,3.219
									c6.42,26.045,4.983,6.586,3.979,84.331c0,0-11.024,2.095-29.731,3.069c-18.708,0.979-29.893,0.043-29.893,0.043
									c-9.028-77.371-8.437-57.578-4.784-85.188l11.094-3.497C100.474,142.746,106.882,140.828,115.135,140.398z"/>
								<polygon fill="#C1C1C1" points="96.879,143.994 94.61,145.228 107.249,161.954 115.814,153.432 								"/>
								<polygon fill="#C1C1C1" points="133.665,142.07 136.05,143.062 125.225,161.015 115.814,153.432 								"/>
								<polygon fill="#C1C1C1" points="112.422,160.338 109.762,220.248 119.707,227.441 128.846,219.251 119.994,159.942 
									116.031,157.562 								"/>
								<polygon fill="#0DA0C1" points="122.076,151.875 115.753,150.641 115.752,150.62 115.711,150.633 115.669,150.625 
									115.67,150.646 109.512,152.532 108.389,156.596 112.333,158.643 119.906,158.247 123.616,155.8 								"/>
								<polygon fill="#0DA0C1" points="112.333,158.643 109.672,218.553 119.618,225.746 128.757,217.556 119.906,158.247 
									115.943,155.867 								"/>
								<polygon fill="#0DA0C1" points="112.867,158.154 111.063,218.025 119.588,225.164 127.318,217.176 119.316,157.817 
									115.925,155.451 								"/>
								<polygon fill="#E8E8E8" points="96.879,143.994 94.61,145.228 107.145,159.957 115.814,153.432 								"/>
								<polygon fill="#E8E8E8" points="133.665,142.07 136.05,143.062 125.12,159.018 115.814,153.432 								"/>
								<path fill="#E8E8E8" d="M83.514,178.219c2.171,9.521,9.203,43.421,6.571,54.846
									C90.085,233.064,85.603,196.524,83.514,178.219z"/>
								<path fill="#E8E8E8" d="M150.591,174.506c-1.167,9.693-4.69,44.354-0.882,55.442
									C149.709,229.948,150.479,192.903,150.591,174.506z"/>
								<path fill="#FBB285" d="M133.665,142.07l-17.851,11.361l-18.938-9.438c-0.318-4.147-4.149-27.386,16.954-28.486
									C134.938,114.406,133.55,137.913,133.665,142.07z"/>
							</g>
							<g id="XMLID_20_">
								<g id="XMLID_223_">
									<g>
										<g>
											<path fill="#FBB285" d="M155.783,61.227c-1.325-21.396-22.958-37.842-48.317-36.723
												C82.107,25.623,62.624,43.878,63.95,65.278c0.314,5.094,2.528,40.819,2.844,45.909
												c1.325,21.4,22.957,37.841,48.315,36.727c25.356-1.118,44.843-19.374,43.518-40.773
												C158.313,102.046,156.1,66.316,155.783,61.227z"/>
											<path fill="#FFC19C" d="M69.271,111.185c-0.318-5.127-2.54-40.996-2.857-46.123
												c-0.985-15.911,8.767-30.056,23.585-36.808c-16.235,6.57-27.048,20.903-26.049,37.021
												c0.314,5.094,2.528,40.819,2.844,45.909c0.998,16.121,13.522,29.424,30.481,34.53
												C81.703,140.306,70.257,127.096,69.271,111.185z"/>
											<path fill="#FFC19C" d="M125.303,26.698c15.57,5.406,27.018,18.616,28.004,34.527c0.316,5.128,2.539,40.996,2.856,46.123
												c0.985,15.911-8.767,30.061-23.585,36.812c16.234-6.57,27.047-20.903,26.049-37.023
												c-0.314-5.09-2.527-40.819-2.844-45.909C154.784,45.106,142.26,31.803,125.303,26.698z"/>
											<path fill="#F09B67" d="M115.109,147.909c8.088-0.356,15.572-2.465,21.979-5.854c-6.613,2.011-13.893,3.287-21.585,3.626
												c-8.646,0.381-16.909-0.467-24.417-2.274C98.219,146.621,106.446,148.292,115.109,147.909z"/>
										</g>
									</g>
								</g>
								<g id="XMLID_222_">
									<g>
										<circle fill="#F09B67" cx="134.95" cy="85.671" r="7.351"/>
										
											<radialGradient id="SVGID_5_" cx="334.2695" cy="1109.0208" r="6.5" gradientTransform="matrix(1 0 0 1 -199.3198 -1023.875)" gradientUnits="userSpaceOnUse">
											<stop  offset="0" style="stop-color:#333333"/>
											<stop  offset="0.4558" style="stop-color:#313131"/>
											<stop  offset="0.7002" style="stop-color:#292929"/>
											<stop  offset="0.8938" style="stop-color:#1B1B1B"/>
											<stop  offset="1" style="stop-color:#101010"/>
										</radialGradient>
										<circle fill="url(#SVGID_5_)" cx="134.95" cy="85.146" r="6.5"/>
										<circle fill="#F09B67" cx="87.916" cy="85.671" r="7.352"/>
										
											<radialGradient id="SVGID_6_" cx="-1902.626" cy="1109.0198" r="6.499" gradientTransform="matrix(-1 0 0 1 -1814.7109 -1023.875)" gradientUnits="userSpaceOnUse">
											<stop  offset="0" style="stop-color:#333333"/>
											<stop  offset="0.4558" style="stop-color:#313131"/>
											<stop  offset="0.7002" style="stop-color:#292929"/>
											<stop  offset="0.8938" style="stop-color:#1B1B1B"/>
											<stop  offset="1" style="stop-color:#101010"/>
										</radialGradient>
										<circle fill="url(#SVGID_6_)" cx="87.915" cy="85.146" r="6.499"/>
										<circle fill="#FAB383" cx="140.508" cy="109.838" r="5.082"/>
										<circle fill="#FAB383" cx="83.853" cy="109.838" r="5.083"/>
										<path fill="#F09B67" d="M156.527,101.185c0.763-44.372,0.637-49.199,0.637-49.199c0-4.129-3.35-7.478-7.479-7.478H73.175
											c-4.131,0-7.48,3.349-7.48,7.478c0,0-0.085,4.841,0.677,49.3c0.341,0.377,0.545,0.565,0.545,0.565
											c0.582-27.189,3.944-38.199,3.944-38.199s2.906,2.282,12.643,2.76c20.827,1.01,65.006-11.16,65.006-11.16
											c7.975,19.765,7.523,46.601,7.523,46.601C156.206,101.633,156.359,101.406,156.527,101.185z"/>
										
											<linearGradient id="SVGID_7_" gradientUnits="userSpaceOnUse" x1="-9977.1973" y1="-11441.001" x2="-9977.1973" y2="-11345.7617" gradientTransform="matrix(0.9997 -0.024 0.024 0.9997 10358.1875 11207.499)">
											<stop  offset="0" style="stop-color:#454545"/>
											<stop  offset="0.452" style="stop-color:#323131"/>
											<stop  offset="1" style="stop-color:#151414"/>
										</linearGradient>
										<path fill="url(#SVGID_7_)" d="M158.563,43.998c3.217,6.931,13.022,39.378-1.955,58.944c0,0,0.199-29.042-8.246-48.607
											c0,0-46.295,10.453-67.141,9.938c-9.744-0.237-11.865-1.514-11.865-1.514s-1.867,15.125-1.797,42.323
											c0,0-10.271-9.034-10.338-31.6c-0.067-22.562,5.292-30.985,9.764-36.688c2.858-3.646,8.107-13.32,8.895-8.486
											C77.655,39.233,85.898,17.941,89.58,22.5c4.116,5.099,14.959-3.86,18.527-9.688c4.455-7.271,12.479,22.137,15.558,9.057
											c3.979-16.938,17.286,9.214,17.771,5.396C142.743,16.944,157.253,43.73,158.563,43.998"/>
										
											<ellipse transform="matrix(0.5178 0.8555 -0.8555 0.5178 113.7957 -33.0296)" fill="#FFFFFF" cx="86.197" cy="84.428" rx="2.457" ry="2.835"/>
										
											<ellipse transform="matrix(0.5178 0.8555 -0.8555 0.5178 136.2188 -72.8071)" fill="#FFFFFF" cx="132.695" cy="84.433" rx="2.457" ry="2.834"/>
									</g>
								</g>
							</g>
						</g>
					</g>
				</g>
			</g>
		</g>
		<g>
			<g>
				<g>
					<g>
						<defs>
							<rect id="SVGID_8_" x="6" y="6.667" width="190" height="186.226"/>
						</defs>
						<clipPath id="SVGID_9_">
							<use xlink:href="#SVGID_8_"  overflow="visible"/>
						</clipPath>
						<circle clip-path="url(#SVGID_9_)" fill="#F4A56E" cx="84.069" cy="107.536" r="4.658"/>
					</g>
				</g>
			</g>
		</g>
		<g>
			<g>
				<g>
					<g>
						<defs>
							<rect id="SVGID_10_" x="6" y="6.667" width="190" height="186.226"/>
						</defs>
						<clipPath id="SVGID_11_">
							<use xlink:href="#SVGID_10_"  overflow="visible"/>
						</clipPath>
						<circle clip-path="url(#SVGID_11_)" fill="#F4A56E" cx="140.451" cy="101.753" r="4.658"/>
					</g>
				</g>
			</g>
		</g>
		<g>
			<g>
				<g>
					<g>
						<defs>
							<rect id="SVGID_12_" x="6" y="6.667" width="190" height="186.226"/>
						</defs>
						<clipPath id="SVGID_13_">
							<use xlink:href="#SVGID_12_"  overflow="visible"/>
						</clipPath>
					</g>
				</g>
			</g>
		</g>
	</g>
</g>
<g id="Layer_2">
	<g>
		<path fill="#0DA0C1" d="M140.906,173.879c-1.268,0.065-2.502-0.553-3.217-1.426c-0.463-0.563-0.765-1.188-0.883-1.914
			c-0.22,0.101-0.402,0.312-0.623,0.431c-1.109,0.73-2.772,0.819-3.975,0.188c-0.964-0.482-1.697-1.325-2.044-2.324
			c-0.396-1.09-0.257-2.445,0.315-3.395c0.311-0.529,0.692-0.956,1.164-1.292c0.905-0.676,2.188-0.936,3.349-0.668
			c0.155-0.202,0.08-0.599,0.188-0.873c0.389-1.526,1.575-2.716,3.188-3.05c1.244-0.257,2.578,0.149,3.438,0.911
			c1.062,0.887,1.687,2.439,1.352,3.958c-0.12,0.621-0.42,1.232-0.807,1.725c0.07,0.154,0.354,0.191,0.483,0.305
			c1.236,0.777,2.009,2.169,1.882,3.738c-0.076,1.012-0.533,1.899-1.188,2.541C142.887,173.384,141.92,173.842,140.906,173.879z"/>
		<path fill="#FFFFFF" d="M142.854,169.972l0.236-0.003c0.284,0.053,0.482,0.31,0.46,0.597c-0.021,0.287-0.254,0.513-0.544,0.521
			l-0.178,0.002c-1.229,0-2.456,0-3.686,0c-0.144,0-0.287,0.006-0.433,0.003c-0.394-0.003-0.705-0.259-0.772-0.644
			c-0.088-0.494,0.278-0.884,0.681-0.921l0.047-0.003l0.112-0.075c0.266-0.486,0.779-0.704,1.313-0.559l0.108-0.046
			c0.229-0.34,0.536-0.568,0.944-0.65c0.771-0.156,1.533,0.345,1.699,1.111c0.045,0.204,0.053,0.408,0.006,0.613l-0.004,0.037
			L142.854,169.972z"/>
		<path fill="#FFFFFF" d="M140.124,161.86l-0.089,0.056c-0.588,0.275-1.176,0.555-1.764,0.828l-0.088,0.134
			c0.008,0.142,0.006,0.287,0.002,0.432l0.063,0.099c0.089,0.033,0.178,0.074,0.277,0.119c0-0.098,0-0.18,0-0.264l-0.002-0.253
			l0.067-0.104c0.356-0.164,0.714-0.335,1.068-0.502c0.25-0.114,0.498-0.232,0.747-0.352l0.141-0.001
			c0.17,0.078,0.342,0.152,0.514,0.229c0.178,0.08,0.268,0.217,0.267,0.413c-0.002,0.537-0.002,1.074-0.003,1.612
			c0,0.192-0.09,0.329-0.266,0.405c-0.52,0.225-1.039,0.442-1.56,0.667c-0.117,0.05-0.237,0.051-0.354,0.002
			c-0.524-0.227-1.054-0.447-1.576-0.675c-0.168-0.073-0.248-0.212-0.254-0.396c-0.004-0.154,0-0.307-0.004-0.46
			c0-0.382,0-0.762,0-1.144c0-0.208,0.092-0.351,0.283-0.435c0.499-0.222,0.997-0.441,1.497-0.668
			c0.103-0.046,0.206-0.073,0.317-0.05l0.055,0.015C139.684,161.664,139.9,161.76,140.124,161.86z"/>
		<path fill="#FFFFFF" d="M134.484,166.071c0.438,0,0.882,0,1.32,0l0.112,0.009c0.138,0.02,0.237,0.129,0.25,0.264l0.005,0.056
			c0,0.567,0,1.134,0,1.698l-0.048,0.188c-0.062,0.097-0.151,0.146-0.271,0.143l-0.104,0.058c-0.203,0.309-0.616,0.307-0.822-0.006
			l-0.095-0.052c-0.643,0.001-1.283,0.001-1.923,0l-0.104,0.057c-0.205,0.31-0.613,0.308-0.822-0.003l-0.099-0.054
			c-0.2-0.006-0.317-0.124-0.317-0.325c0-0.14-0.019-0.279,0.019-0.42c0.085-0.337,0.297-0.551,0.636-0.628l0.163-0.12
			c0.138-0.226,0.282-0.446,0.419-0.676c0.077-0.128,0.184-0.188,0.332-0.188C133.585,166.073,134.035,166.071,134.484,166.071z"/>
		<polygon fill="#27A5AB" points="138.625,167.676 138.734,167.645 138.758,167.669 138.738,167.687 		"/>
		<path fill="#0EA0C1" d="M140.607,163.544l-0.08,0.021l-0.051-0.005v-0.051l0.021-0.051c0.061-0.125,0.117-0.248,0.175-0.372
			l0.048-0.072h0.081l0.204,0.234L141,163.331l-0.035,0.027c-0.098,0.022-0.098,0.096-0.096,0.174
			c0.004,0.151-0.004,0.307,0.002,0.459c0.007,0.102-0.03,0.158-0.126,0.188l-0.079,0.029l-0.053-0.032l-0.002-0.066
			c0-0.157,0-0.315-0.002-0.477L140.607,163.544z"/>
		<path fill="#0EA0C1" d="M139.805,163.93l-0.096,0.02l-0.043-0.049l0.021-0.052c0.055-0.12,0.105-0.24,0.16-0.355l0.037-0.065
			h0.088l0.174,0.207l-0.014,0.113c-0.107,0.038-0.102,0.113-0.1,0.201c0.007,0.145,0.004,0.285,0.01,0.431l-0.089,0.144
			c-0.149,0.066-0.149,0.068-0.149-0.095C139.803,164.261,139.805,164.096,139.805,163.93z"/>
		<path fill="#0FA0C1" d="M141.122,164.222l-0.079,0.09c-0.236,0.102-0.473,0.198-0.709,0.298c-0.223,0.096-0.443,0.188-0.665,0.279
			l-0.026,0.01l-0.066,0.009l0.015-0.104l0.062-0.03c0.455-0.191,0.914-0.389,1.369-0.585l0.045-0.017L141.122,164.222z"/>
		<path fill="#0DA0C1" d="M132.551,167.245l0.135-0.218c0.123-0.194,0.246-0.393,0.369-0.588l0.109-0.063l0.262,0.002l0.063,0.056
			c0,0.253,0,0.505,0,0.76l-0.045,0.055C133.152,167.245,132.863,167.245,132.551,167.245z"/>
		<path fill="#0EA0C1" d="M132.398,168.423c-0.111,0.001-0.207-0.092-0.207-0.2c0-0.107,0.091-0.204,0.201-0.204
			c0.108-0.001,0.203,0.091,0.207,0.2C132.602,168.327,132.508,168.421,132.398,168.423z"/>
		<path fill="#0EA0C1" d="M135.546,168.223c-0.001,0.109-0.095,0.2-0.205,0.2c-0.11-0.002-0.202-0.095-0.202-0.204
			c0-0.108,0.096-0.201,0.205-0.2C135.454,168.019,135.546,168.115,135.546,168.223z"/>
	</g>
</g>
<g>
	<path fill="#B6203B" d="M94.777,116.6l37.018-5.216c0,0,2.594,15.163-15.048,18.459C99.105,133.139,95.265,119.713,94.777,116.6z"
		/>
	<path fill="#FFFFFF" d="M97.638,116.221c0,0,0.83,1.769,1.751,1.985c0.921,0.216,2.047,0.596,16.108-1.335
		c14.062-1.934,13.521-2.744,13.844-2.816c0.324-0.072,0.974-1.426,1.028-2.455L97.638,116.221z"/>
	<path fill="#FFFFFF" d="M105.918,129.631l0.203-0.527c0,0,0.244-0.486,0.936-0.678c0.689-0.189,2.543-0.948,8.147-1.692
		c5.604-0.743,10.017-1.027,10.519-0.541c0,0-3.562,3.168-11.425,4.008C114.298,130.199,110.047,130.768,105.918,129.631z"/>
</g>
</svg>
